<svg width="24" height="24" viewBox="0 0 24 24" fill="none" xmlns="http://www.w3.org/2000/svg">
<path d="M12.3376 19.5115C12.3376 19.5115 3.44434 14.5313 3.44434 8.48386C3.44434 7.41479 3.81473 6.37875 4.49251 5.55199C5.17029 4.72524 6.11357 4.15885 7.16188 3.94919C8.21019 3.73953 9.29876 3.89954 10.2424 4.40202C11.186 4.90449 11.9264 5.71838 12.3376 6.70522C12.7487 5.71838 13.4891 4.90449 14.4328 4.40202C15.3764 3.89954 16.4649 3.73953 17.5133 3.94919C18.5616 4.15885 19.5048 4.72524 20.1826 5.55199C20.8604 6.37875 21.2308 7.41479 21.2308 8.48386C21.2308 14.5313 12.3376 19.5115 12.3376 19.5115Z" stroke="white" stroke-width="1.42292" stroke-linecap="round" stroke-linejoin="round"/>
</svg>
